<svg width="28" height="29" viewBox="0 0 28 29" fill="none" xmlns="http://www.w3.org/2000/svg">
<path d="M14 28.5C21.732 28.5 28 22.232 28 14.5C28 6.76801 21.732 0.5 14 0.5C6.26801 0.5 0 6.76801 0 14.5C0 22.232 6.26801 28.5 14 28.5Z" fill="url(#paint0_linear_1_1156)"/>
<g clip-path="url(#clip0_1_1156)">
<path d="M18.0129 20.5274L14 16.5144L9.9871 20.5274C9.43081 21.0836 8.52897 21.0836 7.97268 20.5274C7.41649 19.9711 7.41649 19.0693 7.97268 18.513L11.9857 14.5001L7.97268 10.4872C7.41649 9.93093 7.41649 9.02909 7.97268 8.47281C8.52897 7.91662 9.43081 7.91662 9.9871 8.47281L14 12.4858L18.0129 8.47281C18.5692 7.91662 19.471 7.91662 20.0273 8.47281C20.5835 9.02909 20.5835 9.93093 20.0273 10.4872L16.0143 14.5001L20.0273 18.513C20.5835 19.0693 20.5835 19.9711 20.0273 20.5274C19.471 21.0836 18.5692 21.0836 18.0129 20.5274Z" fill="white"/>
</g>
<defs>
<linearGradient id="paint0_linear_1_1156" x1="14" y1="0.5" x2="14" y2="28.5" gradientUnits="userSpaceOnUse">
<stop stop-color="#D84929"/>
<stop offset="1" stop-color="#721703"/>
</linearGradient>
<clipPath id="clip0_1_1156">
<rect width="12.8889" height="12.8889" fill="white" transform="translate(7.55554 8.05566)"/>
</clipPath>
</defs>
</svg>
