<svg width="28" height="29" viewBox="0 0 28 29" fill="none" xmlns="http://www.w3.org/2000/svg">
<path d="M14 28.5C21.732 28.5 28 22.232 28 14.5C28 6.76801 21.732 0.5 14 0.5C6.26801 0.5 0 6.76801 0 14.5C0 22.232 6.26801 28.5 14 28.5Z" fill="#3C9710"/>
<path fill-rule="evenodd" clip-rule="evenodd" d="M8.41478 13.5149C7.89919 13.1706 7.21047 13.2489 6.784 13.6995C6.35816 14.1495 6.31806 14.8421 6.69043 15.3379L10.5096 20.4301C10.74 20.7369 11.0964 20.924 11.4803 20.9387C11.8634 20.9527 12.2333 20.7935 12.486 20.5046L21.3973 10.3202C21.8371 9.81798 21.8136 9.06116 21.3438 8.58631C20.8741 8.11147 20.1179 8.08091 19.6106 8.51502L11.4319 15.5257L8.41478 13.5149Z" fill="#FAFAFA"/>
</svg>
